<svg width="768" height="591" viewBox="0 0 768 591" fill="none" xmlns="http://www.w3.org/2000/svg">
<g filter="url(#filter0_d_72139_6083)">
<path fill-rule="evenodd" clip-rule="evenodd" d="M12.1777 137.108C-17.7779 137.108 -32.7791 173.327 -11.5965 194.508L95.4074 301.503C113.467 319.561 137.96 329.706 163.498 329.706H209.101C235.621 329.706 261.056 340.241 279.809 358.993L402.767 481.941C421.52 500.693 446.954 511.227 473.475 511.227H787.718C847.674 511.227 877.699 438.737 835.302 396.343L763.891 324.937C747.845 308.893 759.208 281.458 781.899 281.458C804.59 281.458 815.953 254.024 799.908 237.98L643.523 81.6068C624.77 62.8548 599.335 52.3201 572.815 52.3201H393.39C366.87 52.3201 341.436 41.7855 322.682 23.0335L303.699 4.05217C284.946 -14.6998 259.512 -25.2345 232.991 -25.2345H45.7983C3.43633 -25.2345 -17.778 25.9837 12.1776 55.937L35.9518 79.7093C57.1344 100.89 42.1332 137.108 12.1777 137.108Z" fill="#2D314D"/>
</g>
<path fill-rule="evenodd" clip-rule="evenodd" d="M126.248 -116.657C96.2926 -116.657 81.2913 -80.4389 102.474 -59.2579L209.478 47.7379C227.537 65.7958 252.03 75.9406 277.569 75.9406H323.172C349.692 75.9406 375.126 86.4752 393.88 105.227L516.837 228.175C535.591 246.927 561.025 257.462 587.545 257.462H901.788C961.744 257.462 991.769 184.971 949.372 142.577L877.961 71.1718C861.916 55.1275 873.279 27.693 895.97 27.693C918.661 27.693 930.024 0.258392 913.978 -15.7859L757.594 -172.159C738.84 -190.911 713.406 -201.445 686.886 -201.445H507.461C480.94 -201.445 455.506 -211.98 436.753 -230.732L417.77 -249.713C399.017 -268.465 373.582 -279 347.062 -279H159.869C117.507 -279 96.2925 -227.782 126.248 -197.829L150.022 -174.056C171.205 -152.875 156.204 -116.657 126.248 -116.657Z" fill="url(#paint0_linear_72139_6083)"/>
<defs>
<filter id="filter0_d_72139_6083" x="-98.5128" y="-100.234" width="1030.66" height="690.462" filterUnits="userSpaceOnUse" color-interpolation-filters="sRGB">
<feFlood flood-opacity="0" result="BackgroundImageFix"/>
<feColorMatrix in="SourceAlpha" type="matrix" values="0 0 0 0 0 0 0 0 0 0 0 0 0 0 0 0 0 0 127 0" result="hardAlpha"/>
<feOffset dy="2"/>
<feGaussianBlur stdDeviation="38.5"/>
<feColorMatrix type="matrix" values="0 0 0 0 0 0 0 0 0 0 0 0 0 0 0 0 0 0 0.0240111 0"/>
<feBlend mode="normal" in2="BackgroundImageFix" result="effect1_dropShadow_72139_6083"/>
<feBlend mode="normal" in="SourceGraphic" in2="effect1_dropShadow_72139_6083" result="shape"/>
</filter>
<linearGradient id="paint0_linear_72139_6083" x1="-462.388" y1="-11.8947" x2="-22.0211" y2="824.736" gradientUnits="userSpaceOnUse">
<stop stop-color="#33D35E"/>
<stop offset="1" stop-color="#2AB6D9"/>
</linearGradient>
</defs>
</svg>
